PathFileType	4	(X/Y/Z)	RBDS021\RBDS021runT25.trc
DataRate	CameraRate	NumFrames	NumMarkers	Units	OrigDataRate	OrigDataStartFrame	OrigNumFrames
150.000000	150.000000	5	33	mm	150.000000	1687	4500
Frame#	Time	L.ASIS			L.Heel.Bottom			L.Heel.Lateral			L.Heel.Top			L.Iliac.Crest			L.MT1			L.MT5			L.PSIS			L.Shank.Bottom.Lateral			L.Shank.Bottom.Medial			L.Shank.Top.Lateral			L.Shank.Top.Medial			L.Thigh.Bottom.Lateral			L.Thigh.Bottom.Medial			L.Thigh.Top.Lateral			L.Thigh.Top.Medial			R.ASIS			R.ASY			R.Heel.Bottom			R.Heel.Lateral			R.Heel.Top			R.Iliac.Crest			R.MT1			R.MT5			R.PSIS			R.Shank.Bottom.Lateral			R.Shank.Bottom.Medial			R.Shank.Top.Lateral			R.Shank.Top.Medial			R.Thigh.Bottom.Lateral			R.Thigh.Bottom.Medial			R.Thigh.Top.Lateral			R.Thigh.Top.Medial			
		X1	Y1	Z1	X2	Y2	Z2	X3	Y3	Z3	X4	Y4	Z4	X5	Y5	Z5	X6	Y6	Z6	X7	Y7	Z7	X8	Y8	Z8	X9	Y9	Z9	X10	Y10	Z10	X11	Y11	Z11	X12	Y12	Z12	X13	Y13	Z13	X14	Y14	Z14	X15	Y15	Z15	X16	Y16	Z16	X17	Y17	Z17	X18	Y18	Z18	X19	Y19	Z19	X20	Y20	Z20	X21	Y21	Z21	X22	Y22	Z22	X23	Y23	Z23	X24	Y24	Z24	X25	Y25	Z25	X26	Y26	Z26	X27	Y27	Z27	X28	Y28	Z28	X29	Y29	Z29	X30	Y30	Z30	X31	Y31	Z31	X32	Y32	Z32	X33	Y33	Z33	

1688	11.24666666666667	1936.914059717916	979.0197698573976	854.4856811804394	1478.33653628951	115.8564453348631	953.7857519121515	1498.425314420496	117.1476055820449	900.087777234079	1504.139016426169	153.2187803701401	941.0824531904537	1892.648502244304	1057.028836254953	810.8909672344081	1676.246593206681	43.88932779465667	942.1520930243665	1615.354030378421	40.46570098992839	843.3441532880196	1764.354722124576	1035.723265575273	929.7298026449876	1594.665809736468	219.3466425925387	857.240274501466	1568.853327024827	242.0799883641129	900.8814151242176	1623.915610653227	291.7136332522114	837.4289734357582	1598.244702124549	314.7759498762318	879.1075920683016	1796.583738431819	628.704245684323	795.5001605432748	1738.205246744308	643.5275013363636	833.9828501896684	1807.506593757225	736.5173302763533	775.166240006779	1751.585260480293	750.9012867295792	812.3003469567757	1937.210584277881	983.2873224961095	1073.850760665617	1948.292393633612	145.5613894776978	1060.78142236711	1780.174488035782	194.6763833867431	991.6396497179192	1798.66372093984	198.1620647257751	1044.604103223895	1809.360938465755	227.876228630358	1000.040842722052	1876.485500772069	1058.816603885658	1124.776365746196	1966.371195846677	92.97941040904817	1017.105182334248	1911.965320287704	104.5015425879728	1113.802837354842	1762.742216927719	1033.07376167319	1011.192393877065	1885.97089834626	292.7700824446893	1072.684153910239	1869.939351396921	308.7383593554777	1026.584302158812	1920.327701546813	369.3912814656093	1085.409587536982	1898.603939928317	383.4381867791609	1038.837384412646	2020.315340421468	680.7098289342404	1117.921242741845	1964.929945926018	641.1204383249986	1090.932674073418	1949.192729471906	762.4231029922393	1135.749720526075	1897.04047233872	724.6976228223642	1109.437061340337	
1689	11.25333333333333	1938.662253617902	982.883716873036	855.4570700233749	1467.067412604975	125.1353873645926	951.8677083592008	1487.396745912994	124.9679868491759	898.2351678757917	1494.347123818302	161.2327632402359	938.8320115913024	1897.156367581114	1061.39711645922	811.934388665832	1661.694370210932	44.44957092481972	941.707579377838	1600.861006243225	42.19033616565645	842.7202463551544	1766.579709086862	1040.610473982043	929.3098585825891	1583.909776294055	225.1287081295205	855.7574263584422	1558.380679914568	247.2270545703653	899.9402651665608	1612.938788340978	297.8289767634843	836.7583052926018	1587.369939770621	320.2941571823245	878.8038224574908	1789.924323606721	633.9823388807355	796.7150206244568	1732.102744409265	650.6659324149797	835.3089730326642	1804.043626812399	741.378931683434	776.0785972170875	1748.625237306419	757.4914119883265	813.3303507263397	1938.702883424312	988.4424425557302	1073.930565690991	1972.194395984569	140.7703943137448	1060.780337319486	1802.062758511963	178.9648736957091	990.1679056042544	1819.772643152033	183.5748092032268	1043.29520079473	1828.926029089996	213.9811754472787	998.8045726066216	1877.9354603302	1064.905721396413	1125.273413899531	1994.146667469011	89.50306679560715	1017.029639205438	1938.269560212296	97.40497891069782	1113.346256143602	1764.779550386659	1038.370334316544	1010.969868527919	1900.845869971638	283.7145637144235	1072.09552935811	1884.013583091848	298.7364825497687	1025.945831485461	1930.284382296062	362.3384922174657	1085.221590177052	1907.956688667067	375.0850518472867	1038.558809586747	2019.511186328165	685.0905616402069	1117.825728979745	1963.32071788861	645.6716418035719	1092.128432130943	1949.299118050346	767.6133918946275	1135.5980660192	1896.548811933862	730.2030796837086	1110.147849682313	
1690	11.26	1940.425287593759	986.5892875844526	856.3509349899992	1456.46218049496	134.877933426654	949.9249485461855	1476.989061767396	133.2978460502085	896.3645961633496	1485.214431713159	169.6379582363618	936.6148639556995	1901.534786033282	1065.762732465517	813.0135187139798	1647.513795160929	45.28808447083352	941.1970661045863	1586.769115089088	44.4429025994189	842.0443387352735	1768.854836473861	1045.264581280833	928.7703309361257	1573.916716239802	230.9538700326707	854.3033127405466	1548.543836544186	252.4872921107606	898.9008811213777	1602.788774486222	303.952528843586	836.0821749954749	1577.201737639137	325.889572618945	878.3695842589329	1783.890504978931	639.2905709340772	797.9256412352404	1726.578604846584	657.8127840321155	836.4659109904813	1801.14718266665	746.172353572732	776.9057235985714	1746.188864858714	763.9885639772418	814.1229843197057	1940.307139184435	993.4266744907877	1073.989296617389	1995.870070530327	136.7677084249562	1060.632929454132	1824.296207022195	164.0440097723758	989.0317993068003	1841.293830064174	169.6845136885243	1042.269326129219	1848.761990865334	200.7072173133562	997.8622655148403	1879.4497473473	1070.646723520528	1125.589586338365	2021.459745399257	87.11610440678373	1016.681338235647	1964.611315288163	91.23545079543021	1112.789858562197	1766.854100199536	1043.321249567907	1010.569648042073	1915.871295154074	274.8979215594954	1071.767994818261	1898.235885999555	289.0276496778925	1025.627402469715	1940.37461191463	355.138404652034	1085.418740179583	1917.471265924355	366.656930584311	1038.708761330228	2018.012614328376	688.4970244910024	1117.865808554754	1960.997446018046	649.4517900208303	1093.240033798689	1948.941118304251	772.0169363247904	1135.391763467873	1895.558949085445	735.1018931899488	1110.619361784655	
1691	11.26666666666667	1942.167369958184	990.1186231020675	857.1387340190983	1446.456152161765	145.0231673801611	948.0098041074991	1467.139161350957	142.1047603223912	894.5262113029426	1476.659681667956	178.3909682568995	934.4967734770424	1905.714700507413	1070.080550813579	814.1287702634108	1633.655460720867	46.48302978813096	940.6374076785401	1573.068939616707	47.30010930556229	841.339945757413	1771.131858822114	1049.631684544444	928.1425489661477	1564.666838598752	236.8026504522268	852.9265095802149	1539.318857149928	257.8838464782663	897.7866813537155	1593.50789709601	310.0301049059343	835.4266110643273	1567.781232964708	331.5515100355565	877.8087847927197	1778.601865781075	644.5144677051424	799.1205617672304	1721.728809903563	664.8333844349639	837.4234807784476	1798.895320466172	750.7936547816322	777.6383265798423	1744.323837614712	770.2734580030761	814.6279003473402	1941.995364628589	998.1708040923403	1074.004366288762	2019.146817795086	133.5869797589276	1060.307929135819	1846.613699287785	150.0732784565515	988.2870119102091	1863.016446681545	156.6420530879316	1041.577408642052	1868.644434932567	188.2026118513339	997.2775188047964	1880.989774226472	1075.960967960037	1125.708610274752	2048.057781709128	85.83317398489748	1016.022406915695	1990.803289739193	86.03949950479236	1112.116199703123	1768.91507173469	1047.856715957191	1010.035512253453	1930.91884165875	266.4324103091575	1071.726575503939	1912.456966765735	279.7383212964487	1025.659933117666	1950.517565141489	347.9027062547825	1086.029604008015	1927.03802935343	358.2811564079761	1039.331201564539	2015.86777465241	690.8854659707181	1118.070247630804	1958.059709109858	652.4177747722413	1094.207166184801	1948.125793673172	775.5420361766224	1135.187021206923	1894.118214794709	739.2958641638879	1110.849070447758	
1692	11.27333333333333	1943.858989694611	993.4565568719884	857.8035205009689	1436.964850187994	155.5056460413044	946.1790326199247	1457.765241991396	151.345897456165	892.7750720099142	1468.58431524275	187.4446873348069	932.5435397279701	1909.628729172761	1074.304003922741	815.2729049404658	1620.053826978759	48.10975956224072	940.0574020497979	1559.732560805402	50.81719412339067	840.638391129857	1773.364981396852	1053.666206315047	927.4675158657903	1556.110171887312	242.6706163676133	851.6750623372436	1530.668112521224	263.449883013666	896.6354643699325	1585.107641038662	316.0227160589447	834.8222551005568	1559.135950959754	337.2791522437186	877.1444732322884	1774.176070495839	649.5284913313327	800.2842984137906	1717.646429225587	671.5758411830943	838.1510969762969	1797.361468301347	755.1346717247845	778.2731785724112	1743.071111816159	776.2173853717227	814.8026667509586	1943.73457799485	1002.599401855151	1073.957834788236	2041.826263297483	131.2257892498795	1059.794225829898	1868.728906112676	137.1987647154143	987.9470907331671	1884.688440547532	144.582881206834	1041.235675419375	1888.328198994795	176.6047479281215	997.0815286030077	1882.536457707704	1080.790044961163	1125.634050676932	2073.680200952153	85.62084728055341	1015.045322993191	2016.607184552792	81.81927274979128	1111.31557612014	1770.914905728481	1051.91837110301	1009.422763933548	1945.828115738347	258.4261088647488	1071.97264227066	1926.50643311606	270.9791564521122	1026.04201187752	1960.598666546566	340.7516720145731	1087.04341546214	1936.521232859188	350.0815426009337	1040.424318279133	2013.146489404979	692.2469623865024	1118.467756987605	1954.627219604862	654.5532334756286	1094.986434894035	1946.876998381889	778.13001943005	1135.049764097201	1892.290901297697	742.7145614048219	1110.852574293581	
